<svg id="visual" viewBox="0 0 600 100" width="600" height="100" xmlns="http://www.w3.org/2000/svg" xmlns:xlink="http://www.w3.org/1999/xlink" version="1.1"><rect x="0" y="0" width="600" height="100" fill="#0d0b10"></rect><path d="M0 57L25 56.2C50 55.3 100 53.7 150 56.8C200 60 250 68 300 74.7C350 81.3 400 86.7 450 83.8C500 81 550 70 575 64.5L600 59L600 101L575 101C550 101 500 101 450 101C400 101 350 101 300 101C250 101 200 101 150 101C100 101 50 101 25 101L0 101Z" fill="#21420d" stroke-linecap="round" stroke-linejoin="miter"></path></svg>